<?xml version="1.0" encoding="UTF-8"?>
<!-- Generator: Adobe Illustrator 17.1.0, SVG Export Plug-In . SVG Version: 6.00 Build 0)  -->
<!DOCTYPE svg PUBLIC "-//W3C//DTD SVG 1.1//EN" "http://www.w3.org/Graphics/SVG/1.1/DTD/svg11.dtd">
<svg version="1.1" id="Layer_1" xmlns="http://www.w3.org/2000/svg" xmlns:xlink="http://www.w3.org/1999/xlink" x="0px" y="0px" viewBox="0 0 22 22" enable-background="new 0 0 22 22" xml:space="preserve">
<path fill="#fff" d="M15.3,2.5c-1.7,0-3.3,0.8-4.3,2.1C9.9,3.2,8.4,2.5,6.7,2.5C3.9,2.5,1,4.7,1,8.9c0,4.4,4.9,7.7,9.5,10.4  c0.2,0.1,0.3,0.1,0.5,0.1c0.2,0,0.4,0,0.5-0.1c4.6-2.8,9.5-6.1,9.5-10.4C21,4.7,18.1,2.5,15.3,2.5 M11,17.4c-3.1-1.9-8-5-8-8.5  c0-3.1,1.9-4.5,3.7-4.5c1.5,0,2.8,0.9,3.4,2.4c0.2,0.4,0.5,0.6,0.9,0.6c0.4,0,0.8-0.2,0.9-0.6c0.6-1.5,1.9-2.4,3.4-2.4  c1.8,0,3.7,1.4,3.7,4.5C19,12.3,14.1,15.5,11,17.4"/>
</svg>