<?xml version="1.0" encoding="UTF-8" standalone="no"?>
<!-- Generator: Adobe Illustrator 17.1.0, SVG Export Plug-In . SVG Version: 6.00 Build 0)  -->
<svg xmlns:dc="http://purl.org/dc/elements/1.1/" xmlns:cc="http://creativecommons.org/ns#" xmlns:rdf="http://www.w3.org/1999/02/22-rdf-syntax-ns#" xmlns:svg="http://www.w3.org/2000/svg" xmlns="http://www.w3.org/2000/svg" xmlns:sodipodi="http://sodipodi.sourceforge.net/DTD/sodipodi-0.dtd" xmlns:inkscape="http://www.inkscape.org/namespaces/inkscape" version="1.1" id="Layer_1" x="0px" y="0px" viewBox="0 0 612 242.4" enable-background="new 0 0 612 792" xml:space="preserve" inkscape:version="0.48.4 r9939" width="100%" height="100%" sodipodi:docname="new.svg"><metadata id="metadata3013"><rdf:RDF><cc:Work rdf:about=""><dc:format>image/svg+xml</dc:format><dc:type rdf:resource="http://purl.org/dc/dcmitype/StillImage"/></cc:Work></rdf:RDF></metadata><defs id="defs3011"/><sodipodi:namedview pagecolor="#ffffff" bordercolor="#666666" borderopacity="1" objecttolerance="10" gridtolerance="10" guidetolerance="10" inkscape:pageopacity="0" inkscape:pageshadow="2" inkscape:window-width="1920" inkscape:window-height="1137" id="namedview3009" showgrid="false" fit-margin-top="0" fit-margin-left="0" fit-margin-right="0" fit-margin-bottom="0" inkscape:zoom="1.2272727" inkscape:cx="306" inkscape:cy="121.2" inkscape:window-x="-8" inkscape:window-y="-8" inkscape:window-maximized="1" inkscape:current-layer="Layer_1"/>
<rect y="9.9999876" width="612" height="228.2" id="rect3001" x="0" style="fill:#ffffff"/>
<g id="g3003" transform="translate(0,-274.8)">
	<g id="g3005">
		<path d="M 0,517.2 H 612 V 274.8 H 0 v 242.4 z m 491.9,-53.1 h -27.7 l -20.8,-64.7 -20.8,64.7 H 394.9 L 351,339.4 h 32.3 l 23.1,69.3 20.8,-69.3 h 25.4 l 20.8,69.3 23.1,-69.3 h 32.3 l -36.9,124.7 z m -152.4,0 H 247.1 V 341.7 h 90.1 v 30 h -60 v 18.5 h 53.1 v 27.7 h -53.1 v 18.5 h 62.4 v 27.7 z m -129.3,0 H 182.5 L 127,394.8 v 71.6 H 97 V 341.7 h 27.7 l 55.4,71.6 v -71.6 h 30 v 122.4 z" id="path3007" inkscape:connector-curvature="0" style="fill:#d54d4d"/>
	</g>
</g>
</svg>